<?xml version="1.0" standalone="no"?>
<!DOCTYPE svg PUBLIC "-//W3C//DTD SVG 20010904//EN"
 "http://www.w3.org/TR/2001/REC-SVG-20010904/DTD/svg10.dtd">
<svg version="1.0" xmlns="http://www.w3.org/2000/svg"
 width="600.000000pt" height="400.000000pt" viewBox="0 0 600.000000 400.000000"
 preserveAspectRatio="xMidYMid meet">
<g transform="translate(0.000000,400.000000) scale(0.100000,-0.100000)"
fill="#000000" stroke="none">
<path d="M2528 2677 c-69 -122 -196 -348 -283 -502 -86 -154 -166 -293 -177
-309 -20 -28 -20 -29 -2 -23 10 4 58 20 106 36 48 17 123 36 166 43 l79 12
109 194 c60 107 114 200 119 208 7 10 42 -44 135 -211 112 -201 128 -225 155
-231 46 -10 305 -93 326 -105 11 -5 19 -8 19 -6 0 2 -104 188 -231 413 -128
225 -269 475 -314 556 l-82 148 -125 -223z m144 136 c7 -16 12 -32 12 -38 1
-5 10 -18 20 -27 10 -10 15 -18 11 -18 -5 0 0 -7 11 -16 10 -8 13 -13 7 -9 -9
4 -11 1 -7 -9 3 -9 10 -14 14 -11 7 4 18 -12 17 -25 0 -3 12 -24 26 -47 18
-28 26 -52 23 -72 -2 -22 0 -28 11 -24 11 4 11 8 1 22 -12 14 -11 15 5 2 9 -8
15 -16 12 -19 -2 -3 3 -11 13 -19 9 -8 11 -12 4 -8 -7 3 -1 -10 13 -30 13 -21
22 -41 20 -45 -3 -5 0 -12 6 -16 8 -4 9 -3 5 4 -4 7 -5 12 -2 12 3 0 10 -9 16
-19 7 -14 7 -22 -2 -27 -7 -5 -8 -3 -3 7 8 12 6 12 -8 0 -19 -15 -23 -26 -5
-15 7 5 9 2 6 -8 -4 -8 -1 -15 7 -15 7 0 11 6 8 14 -3 7 -1 13 4 13 8 0 57
-91 62 -115 2 -5 9 -14 17 -18 8 -4 14 -13 14 -20 0 -8 -3 -8 -9 1 -7 11 -9
11 -14 -1 -4 -11 1 -14 18 -12 14 1 22 -2 19 -6 -3 -5 3 -21 14 -37 29 -42 36
-56 25 -49 -5 3 -10 0 -10 -7 0 -8 6 -12 13 -9 15 6 38 -33 28 -49 -4 -7 -3
-8 4 -4 7 4 12 1 12 -8 0 -9 4 -16 10 -16 5 0 6 -7 3 -17 -5 -12 -3 -14 7 -8
8 5 11 4 7 -2 -4 -6 13 -41 38 -78 25 -36 45 -68 45 -70 0 -7 -54 6 -82 21
-17 9 -27 11 -24 5 4 -6 -12 -2 -36 9 -23 10 -47 16 -53 12 -5 -3 -3 3 5 13
14 17 14 18 -8 6 -12 -6 -27 -9 -32 -6 -6 3 -20 8 -32 10 -13 3 -24 9 -26 15
-2 6 -9 7 -14 4 -7 -4 -8 -2 -4 5 4 6 -6 27 -23 48 -16 20 -28 40 -25 45 3 4
0 8 -6 8 -6 0 -8 5 -5 10 4 6 12 7 18 3 7 -4 6 0 -2 10 -7 9 -19 17 -25 17 -6
0 -4 -5 4 -10 9 -6 10 -10 3 -10 -17 0 -36 37 -27 53 4 6 4 9 -1 5 -10 -9 -37
40 -29 53 3 5 -1 6 -9 3 -7 -2 -14 1 -14 8 0 7 -15 38 -33 68 -18 30 -33 60
-33 67 0 7 -6 14 -14 17 -7 3 -13 12 -13 21 0 31 -46 9 -69 -33 -7 -13 -18
-21 -25 -19 -7 3 -13 -1 -13 -9 0 -7 5 -11 10 -7 5 3 -2 -13 -14 -35 -23 -39
-25 -40 -44 -24 -18 16 -19 16 -6 0 7 -9 9 -23 5 -29 -5 -8 -3 -9 5 -4 16 9 4
-15 -39 -79 -17 -24 -30 -48 -30 -53 0 -5 -11 -24 -25 -43 -13 -18 -22 -37
-19 -42 7 -10 -33 -25 -83 -31 -60 -7 -187 -39 -200 -50 -23 -17 -15 17 12 53
14 19 25 40 25 47 0 7 5 12 11 10 6 -1 12 8 14 19 1 12 17 46 36 75 19 30 33
58 31 63 -2 4 4 6 13 2 11 -4 14 -2 9 6 -5 8 -2 9 11 4 13 -5 15 -3 8 6 -12
16 -13 49 -1 42 4 -3 8 1 8 9 0 8 7 20 15 27 9 7 13 15 11 18 -9 8 14 43 24
37 6 -3 7 1 4 9 -3 9 -1 16 5 16 6 0 11 7 11 16 0 9 5 12 12 8 6 -4 8 -3 5 4
-7 11 23 72 36 72 4 0 7 10 7 21 0 18 2 19 15 9 13 -11 14 -10 9 5 -6 14 -4
16 6 10 9 -5 11 -4 6 4 -4 6 -12 9 -18 5 -5 -3 1 11 15 32 13 22 29 39 35 39
17 0 24 12 11 21 -8 5 -10 3 -4 -6 5 -9 4 -11 -3 -6 -17 10 5 49 24 42 11 -4
12 -2 4 13 -7 14 -6 22 3 30 7 5 23 31 36 56 12 25 27 43 32 40 5 -4 6 0 3 8
-3 8 0 18 7 23 8 5 10 3 4 -6 -5 -8 -4 -11 3 -7 5 4 9 15 7 25 -2 15 11 42 21
42 3 0 10 -12 16 -27z"/>
<path d="M2644 2392 c3 -5 0 -12 -6 -15 -7 -2 -10 -7 -7 -11 3 -4 12 0 18 8 9
11 9 16 0 22 -7 4 -9 3 -5 -4z"/>
<path d="M2210 2056 c0 -2 7 -7 16 -10 8 -3 12 -2 9 4 -6 10 -25 14 -25 6z"/>
<path d="M3120 1971 c0 -6 4 -13 10 -16 6 -3 7 1 4 9 -7 18 -14 21 -14 7z"/>
<path d="M2139 1923 c-13 -16 -12 -17 4 -4 9 7 17 15 17 17 0 8 -8 3 -21 -13z"/>
<path d="M3960 2840 c-403 -6 -405 -6 -482 -31 -203 -69 -356 -206 -428 -383
l-22 -56 163 -289 164 -290 55 -20 c129 -47 179 -55 345 -55 135 0 173 3 245
22 84 23 246 95 285 127 l20 17 -20 -8 c-145 -52 -234 -68 -380 -68 -200 0
-375 60 -484 166 -78 77 -106 141 -106 248 0 73 4 92 27 136 35 66 114 137
186 166 54 21 72 23 373 26 l316 3 77 146 c42 81 75 147 74 147 -2 1 -185 -1
-408 -4z m349 -59 c-10 -22 -19 -44 -19 -49 0 -5 -7 -15 -15 -22 -8 -7 -12
-16 -9 -21 3 -5 0 -9 -7 -9 -7 0 -9 -3 -6 -7 4 -3 -1 -12 -11 -20 -10 -9 -11
-11 -2 -7 13 7 13 6 1 -10 -8 -9 -20 -15 -28 -12 -11 4 -11 1 -2 -15 8 -16 8
-24 -2 -33 -9 -8 -11 -7 -5 9 6 19 5 19 -8 2 -13 -17 -36 -18 -304 -17 -272 0
-293 -1 -346 -21 -31 -11 -64 -18 -72 -15 -10 4 -14 1 -11 -6 4 -13 -51 -54
-65 -50 -5 1 -8 -3 -8 -9 0 -16 -57 -79 -65 -71 -3 3 -3 -1 0 -9 3 -9 -1 -21
-9 -28 -8 -7 -12 -20 -9 -28 4 -11 2 -14 -5 -9 -8 5 -10 2 -6 -8 3 -9 2 -16
-2 -16 -5 0 -10 -34 -12 -76 -2 -57 0 -74 9 -68 8 4 9 3 5 -4 -4 -6 1 -26 10
-44 17 -32 17 -33 -2 -18 -18 14 -18 14 -1 -6 9 -11 17 -26 17 -33 0 -7 5 -9
11 -5 8 5 8 1 0 -14 -8 -15 -8 -23 1 -28 7 -4 8 -3 4 4 -4 7 -3 12 3 12 15 0
40 -57 29 -68 -5 -5 -3 -9 6 -9 8 0 12 5 9 10 -3 5 0 7 8 5 8 -3 13 -13 13
-22 -1 -9 2 -16 7 -16 5 0 9 5 9 11 0 6 7 4 15 -5 8 -8 12 -21 9 -29 -7 -20
15 -33 29 -18 9 9 8 11 -5 6 -11 -4 -18 -2 -18 4 0 17 31 13 46 -6 7 -10 16
-18 21 -18 4 -1 30 -11 57 -23 27 -12 58 -22 70 -22 15 0 17 -3 8 -9 -10 -6
-7 -10 12 -13 16 -3 23 -1 19 5 -3 6 -1 7 5 3 25 -15 131 -28 226 -28 63 1 95
-3 89 -9 -12 -12 -131 -32 -155 -26 -10 3 -20 1 -24 -4 -7 -12 -191 -1 -216
12 -16 8 -19 8 -13 -1 6 -9 2 -9 -15 0 -12 6 -24 9 -27 7 -2 -3 -20 1 -39 9
-19 8 -34 12 -34 9 0 -3 -12 3 -27 12 -15 10 -24 12 -20 6 6 -9 3 -11 -7 -7
-9 3 -16 10 -16 15 0 5 -9 9 -20 9 -14 0 -18 5 -13 17 4 11 3 14 -5 9 -7 -4
-12 -1 -12 9 0 10 -5 13 -12 9 -9 -5 -8 -2 1 9 12 15 12 17 -4 11 -15 -6 -17
-3 -13 18 4 20 1 25 -10 20 -9 -3 -13 -1 -9 5 4 6 -2 18 -13 28 -11 10 -20 24
-20 32 0 7 -5 13 -11 13 -8 0 -8 4 0 14 10 12 8 18 -11 30 -13 8 -32 36 -43
60 -11 25 -23 46 -27 46 -5 0 -8 7 -8 16 0 9 5 12 13 8 6 -4 9 -4 5 0 -3 4 -9
6 -12 4 -10 -6 -77 106 -71 120 3 7 1 11 -4 8 -5 -3 -15 2 -22 11 -12 14 -12
16 1 9 8 -4 7 -1 -4 8 -10 8 -15 20 -10 27 4 7 3 10 -3 6 -6 -4 -13 0 -17 8
-3 8 0 17 6 21 7 5 8 2 3 -6 -5 -9 -4 -11 4 -6 6 4 9 12 6 17 -7 10 14 79 29
94 6 6 6 5 1 -4 -5 -10 -4 -12 4 -7 6 4 9 11 6 16 -3 4 6 22 20 38 13 16 22
32 18 36 -3 3 5 6 18 6 19 0 21 2 9 10 -13 9 -7 14 13 11 4 0 7 5 7 12 0 7 14
26 31 43 17 16 29 25 27 19 -2 -5 1 -10 7 -10 5 0 9 5 7 11 -1 6 9 19 23 28
14 9 25 12 25 7 0 -5 -5 -12 -10 -14 -6 -3 -5 -4 2 -3 7 1 15 11 18 22 3 10
11 19 18 20 29 2 33 5 26 16 -4 7 -3 8 4 4 7 -4 21 2 33 13 12 11 26 18 30 15
5 -3 17 0 28 5 11 6 37 14 58 17 21 3 56 9 78 14 22 4 194 8 382 9 l341 1 -19
-39z"/>
<path d="M3091 2433 c-10 -26 -10 -27 4 -9 8 11 15 23 15 28 0 15 -7 8 -19
-19z"/>
<path d="M3294 2380 c0 -13 4 -16 10 -10 7 7 7 13 0 20 -6 6 -10 3 -10 -10z"/>
<path d="M4301 1864 c-70 -74 -240 -162 -372 -194 -225 -53 -403 -32 -798 94
-242 78 -335 96 -526 103 -126 4 -179 2 -250 -11 -282 -53 -504 -182 -685
-397 -61 -73 -73 -104 -22 -57 66 61 199 134 317 175 226 77 531 72 827 -13
49 -14 161 -49 251 -79 242 -79 375 -107 541 -113 152 -5 236 5 349 44 158 53
279 156 345 294 37 79 68 180 53 180 -3 0 -17 -12 -30 -26z m-1537 -30 c130
-22 128 -22 161 -32 17 -5 36 -7 44 -4 9 3 11 0 6 -8 -5 -9 -2 -10 14 -5 12 3
21 2 21 -4 0 -8 22 -15 130 -40 50 -12 90 -32 83 -43 -3 -6 5 -5 17 2 17 9 21
9 15 0 -5 -9 -1 -10 15 -5 12 4 20 3 17 -1 -3 -5 5 -10 16 -10 12 -1 65 -13
117 -28 52 -15 124 -29 160 -32 99 -8 251 -5 286 5 19 5 37 5 49 -1 12 -7 16
-7 11 0 -6 11 32 29 79 38 17 3 43 12 59 20 16 8 33 14 37 14 10 0 129 78 157
103 18 17 25 18 35 8 9 -10 8 -11 -8 -5 -17 7 -18 5 -8 -8 7 -8 9 -18 5 -22
-4 -4 -7 -11 -7 -14 -1 -19 -54 -109 -80 -136 -16 -16 -23 -26 -15 -21 8 4 2
-4 -13 -18 -15 -15 -30 -27 -33 -27 -3 0 -20 -11 -38 -25 -18 -14 -36 -22 -41
-17 -5 4 -5 1 -1 -5 4 -7 2 -13 -4 -13 -6 0 -8 -5 -4 -12 5 -8 0 -7 -11 2 -11
9 -16 10 -11 3 4 -8 1 -13 -9 -13 -10 0 -13 -5 -9 -12 4 -7 3 -8 -4 -4 -6 4
-26 -1 -44 -11 -18 -9 -36 -16 -41 -15 -4 1 -23 -4 -43 -13 -24 -10 -33 -11
-27 -2 4 8 2 8 -9 -1 -9 -7 -39 -14 -67 -15 -28 -1 -51 -5 -51 -9 0 -5 -25 -8
-55 -8 -34 0 -55 4 -55 11 0 7 -4 8 -12 2 -7 -5 -24 -8 -38 -7 -14 1 -48 3
-77 5 -29 1 -50 6 -48 10 3 3 -16 6 -40 5 -28 -1 -44 3 -41 9 2 6 -12 11 -33
11 -20 1 -70 11 -111 23 -41 12 -84 24 -94 26 -11 2 -49 16 -85 29 -36 14 -79
28 -96 32 -37 8 -57 23 -48 37 3 6 1 7 -6 3 -6 -4 -9 -11 -6 -16 8 -12 -53 6
-73 22 -13 11 -14 11 -8 0 7 -12 4 -12 -15 -1 -27 14 -84 28 -146 36 -23 3
-51 14 -64 26 -18 17 -21 18 -16 4 5 -13 1 -17 -18 -17 -14 0 -25 3 -25 8 0 4
-22 5 -50 4 -27 -2 -50 0 -50 5 0 10 -99 10 -190 -1 -87 -9 -235 -44 -286 -67
-23 -11 -49 -19 -58 -19 -9 0 -16 -5 -16 -10 0 -6 -3 -9 -7 -8 -20 4 -62 -15
-56 -26 3 -6 3 -8 -2 -4 -4 4 -14 0 -22 -8 -19 -18 -39 -8 -22 12 6 8 14 12
17 9 3 -2 16 10 29 27 12 18 23 29 23 24 0 -4 16 9 37 29 20 19 40 35 45 35 5
0 25 11 45 25 26 17 41 21 53 15 12 -6 17 -5 17 5 0 8 -5 11 -11 8 -7 -3 -6
-1 1 7 12 13 37 4 28 -11 -3 -5 1 -6 10 -2 13 5 14 8 3 15 -10 7 -9 11 7 21
47 28 93 44 120 41 22 -2 26 -1 15 6 -12 8 -9 10 12 10 15 0 30 4 33 10 4 6
-1 7 -12 3 -10 -3 -15 -3 -11 1 3 4 17 9 30 11 100 14 125 18 135 24 27 14
297 10 387 -5z"/>
<path d="M4260 1779 c0 -5 -3 -8 -7 -6 -5 3 -8 -8 -9 -24 -1 -16 0 -28 1 -27
13 19 31 68 24 68 -5 0 -9 -5 -9 -11z"/>
<path d="M2336 1769 c-38 -5 -72 -11 -74 -14 -12 -12 7 -14 42 -4 21 6 88 11
149 12 109 1 160 -3 282 -23 33 -5 74 -12 90 -14 28 -4 165 -46 210 -65 26
-11 182 -59 218 -67 15 -3 27 -9 27 -13 0 -4 8 -8 18 -8 63 1 86 -4 72 -13
-11 -8 -8 -9 12 -4 15 3 42 1 60 -5 18 -6 92 -11 163 -11 165 0 158 -1 234 16
35 8 66 13 68 10 4 -4 172 74 203 95 8 5 23 12 33 15 9 4 17 10 17 15 0 5 -11
3 -25 -3 -14 -6 -25 -15 -25 -20 0 -4 -8 -8 -18 -8 -10 0 -28 -7 -40 -16 -36
-25 -154 -62 -248 -79 -202 -35 -399 -7 -739 107 -214 71 -350 98 -520 103
-77 2 -171 0 -209 -6z"/>
<path d="M2205 1740 c-19 -8 -19 -9 2 -9 12 -1 25 4 28 9 7 12 -2 12 -30 0z"/>
<path d="M3130 1716 c4 -4 16 -4 26 2 16 9 14 10 -8 9 -15 -1 -23 -6 -18 -11z"/>
<path d="M3170 1710 c-9 -6 -10 -10 -3 -10 6 0 15 5 18 10 8 12 4 12 -15 0z"/>
<path d="M2188 1703 c6 -2 18 -2 25 0 6 3 1 5 -13 5 -14 0 -19 -2 -12 -5z"/>
<path d="M3186 1695 c-11 -8 -15 -15 -9 -15 6 0 16 7 23 15 16 19 11 19 -14 0z"/>
<path d="M2095 1690 c4 -6 11 -8 16 -5 14 9 11 15 -7 15 -8 0 -12 -5 -9 -10z"/>
<path d="M2015 1669 c-36 -17 -28 -18 25 -3 11 3 20 10 20 15 0 5 -1 9 -2 8
-2 0 -21 -9 -43 -20z"/>
<path d="M4164 1668 c-3 -5 -2 -8 3 -7 22 4 32 -3 27 -18 -4 -14 -2 -13 7 2 7
11 11 22 8 25 -8 8 -40 7 -45 -2z"/>
<path d="M2108 1653 c7 -3 16 -2 19 1 4 3 -2 6 -13 5 -11 0 -14 -3 -6 -6z"/>
<path d="M1881 1621 c-10 -6 -9 -10 3 -14 8 -3 18 -2 21 3 8 13 -9 20 -24 11z"/>
<path d="M4087 1586 c-4 -10 -1 -13 8 -9 8 3 12 9 9 14 -7 12 -11 11 -17 -5z"/>
<path d="M4090 1560 c-9 -6 -10 -10 -3 -10 6 0 15 5 18 10 8 12 4 12 -15 0z"/>
<path d="M3560 1480 c-43 -7 -42 -7 18 -7 34 1 62 5 62 9 0 9 -13 8 -80 -2z"/>
<path d="M3468 1413 c7 -3 16 -2 19 1 4 3 -2 6 -13 5 -11 0 -14 -3 -6 -6z"/>
<path d="M2123 1549 c-83 -17 -148 -38 -250 -80 -22 -9 -41 -29 -59 -64 -15
-27 -42 -74 -61 -103 l-33 -52 161 2 161 3 60 105 c33 58 73 129 89 158 17 28
29 52 27 51 -2 0 -45 -9 -95 -20z m25 -44 c-36 -74 -44 -85 -57 -80 -11 4 -12
3 -1 -10 9 -11 9 -15 1 -15 -7 0 -10 -4 -7 -9 3 -5 -1 -14 -9 -21 -8 -7 -15
-19 -15 -27 0 -8 -4 -11 -10 -8 -5 3 -7 0 -4 -8 2 -7 -5 -25 -16 -38 -12 -13
-18 -17 -14 -9 7 13 5 13 -8 2 -23 -18 -169 -12 -186 8 -10 13 -11 12 -5 -5 6
-17 4 -18 -9 -8 -8 7 -18 10 -21 7 -4 -4 -5 3 -2 14 4 22 34 73 49 83 5 4 5
13 1 20 -5 8 -5 11 -1 8 4 -4 20 7 36 23 26 26 32 28 52 17 22 -12 22 -11 8 6
-8 10 -10 16 -4 12 7 -4 32 2 58 13 25 12 59 22 75 23 16 1 27 6 23 11 -3 5 2
7 11 3 9 -3 18 -3 21 1 2 4 14 8 24 8 17 0 19 -4 10 -21z"/>
<path d="M4115 1471 c-3 -5 -2 -12 3 -15 5 -3 9 1 9 9 0 17 -3 19 -12 6z"/>
</g>
</svg>
